#!OML:ASF H:\Terrain\Patient Classification 1\Walking\steve\steve.ASF
:FULLY-SPECIFIED
:DEGREES
16
root 5.80445 15.2868 -42.9076 5.60434 -4.21103 -3.32684
lowerback -0.619504 4.89471 6.87842
upperback -2.23574 6.57888 1.47882
thorax -1.3719 3.19267 -2.30036
lowerneck -6.11801 -1.79834 -1.20474
upperneck 19.5513 -2.18332 -0.5257
head 6.97922 -1.1656 -0.135741
rclavicle 5.62693e-015 7.95139e-015
rhumerus -13.4293 -3.95611 -83.1139
rradius 33.7313
rwrist -3.20195
rhand -17.9567 -33.9681
rfingers 7.12502
rthumb 8.31211 -63.7845
lclavicle 5.62693e-015 7.95139e-015
lhumerus -51.3159 -1.44061 89.2379
lradius 21.4722
lwrist 7.97014
lhand -23.9519 -12.3057
lfingers 7.12502
lthumb 2.52379 17.6592
rfemur -9.09779 1.42734 28.3799
rtibia 29.1103
rfoot -14.6172 19.4382
rtoes 21.2923
lfemur -37.3368 5.9419 -17.3541
ltibia 36.6192
lfoot -18.1446 2.71665
ltoes -2.6096
17
root 5.81711 15.2771 -42.764 5.63714 -4.36724 -3.58485
lowerback -0.972002 4.94863 7.16461
upperback -1.94456 6.60176 1.50947
thorax -0.843904 3.22322 -2.37238
lowerneck -6.48878 -1.74109 -1.15522
upperneck 19.498 -2.10289 -0.546523
head 7.02661 -1.12534 -0.14794
rclavicle 4.05583e-014 1.59028e-015
rhumerus -12.3359 -3.62085 -83.1445
rradius 34.028
rwrist -3.54498
rhand -20.0857 -36.3113
rfingers 7.12502
rthumb 6.2571 -66.1989
lclavicle 4.05583e-014 1.59028e-015
lhumerus -51.7989 -1.51154 89.3822
lradius 21.7556
lwrist 8.45921
lhand -23.116 -12.2592
lfingers 7.12502
lthumb 3.3311 17.6946
rfemur -8.27183 1.39871 28.5416
rtibia 28.4544
rfoot -14.4605 19.7898
rtoes 21.7367
lfemur -37.3948 5.30881 -16.7086
ltibia 34.3162
lfoot -18.5375 2.9579
ltoes 1.75361
18
root 5.8262 15.2919 -42.6186 5.61405 -4.50024 -4.05138
lowerback -1.24443 4.99304 7.59704
upperback -1.68881 6.61785 1.64595
thorax -0.394694 3.24719 -2.42472
lowerneck -6.61891 -1.66271 -1.22679
upperneck 19.2918 -2.00068 -0.460461
head 6.9844 -1.07398 -0.100215
rclavicle 5.66164e-014 3.49861e-014
rhumerus -11.5598 -2.95351 -83.0547
rradius 34.5452
rwrist -4.17316
rhand -20.3867 -36.3537
rfingers 7.12502
rthumb 5.96647 -66.2497
lclavicle 5.66164e-014 3.49861e-014
lhumerus -52.037 -0.996234 89.0187
lradius 21.4222
lwrist 8.34629
lhand -22.7371 -12.9182
lfingers 7.12502
lthumb 3.69703 17.0295
rfemur -7.29166 1.33995 28.9421
rtibia 27.7249
rfoot -14.528 20.0921
rtoes 22.3712
lfemur -37.2362 4.77314 -15.921
ltibia 32.21
lfoot -18.158 4.39564
ltoes -3.88872
19
root 5.83258 15.3002 -42.4768 5.61269 -4.60177 -4.39424
lowerback -1.43884 4.95674 7.8082
upperback -1.46485 6.53466 1.83317
thorax -0.0611686 3.22042 -2.31911
lowerneck -6.83935 -1.50782 -1.50075
upperneck 19.1906 -1.76939 -0.339051
head 6.99404 -0.972099 0.00159956
rclavicle -9.3143e-014 -3.18055e-014
rhumerus -10.7448 -1.82903 -82.9592
rradius 35.1636
rwrist -4.61756
rhand -19.6647 -37.5154
rfingers 7.12502
rthumb 6.66351 -67.3905
lclavicle -9.3143e-014 -3.18055e-014
lhumerus -52.1666 0.14145 88.2558
lradius 20.8262
lwrist 7.83872
lhand -22.3722 -12.9976
lfingers 7.12502
lthumb 4.04935 16.9437
rfemur -6.32715 1.3248 29.2401
rtibia 26.947
rfoot -14.371 20.2247
rtoes 22.7853
lfemur -37.0002 3.47813 -14.866
ltibia 30.1073
lfoot -17.8599 5.79683
ltoes -8.67108
20
root 5.84158 15.2996 -42.3393 5.7517 -4.67127 -4.33238
lowerback -1.65099 4.90544 7.59255
upperback -1.32714 6.43936 1.90833
thorax 0.159551 3.18468 -2.10222
lowerneck -7.05351 -1.41274 -1.75266
upperneck 19.0261 -1.59996 -0.338651
head 6.98055 -0.908255 0.0563194
rclavicle -1.78285e-014 -2.38542e-014
rhumerus -9.77178 -0.887936 -82.8777
rradius 35.3753
rwrist -4.78223
rhand -19.0952 -36.4683
rfingers 7.12502
rthumb 7.21322 -66.3253
lclavicle -1.78285e-014 -2.38542e-014
lhumerus -52.6572 0.735148 88.0656
lradius 20.8646
lwrist 8.06819
lhand -22.0189 -12.3038
lfingers 7.12502
lthumb 4.39049 17.6307
rfemur -5.65831 1.41691 29.0757
rtibia 26.3298
rfoot -14.1714 19.9217
rtoes 14.5271
lfemur -36.9312 2.17358 -14.1111
ltibia 27.7644
lfoot -17.5835 6.27592
ltoes -8.74622
21
root 5.85444 15.299 -42.2017 5.9037 -4.58733 -3.67693
lowerback -1.85491 4.93154 6.8436
upperback -1.31675 6.46645 1.69937
thorax 0.231071 3.20469 -1.88993
lowerneck -6.96137 -1.50248 -1.66024
upperneck 18.7293 -1.72521 -0.416607
head 6.86768 -0.967428 0.00778209
rclavicle -5.67033e-014 9.54166e-015
rhumerus -9.09833 -0.716888 -82.7403
rradius 35.4165
rwrist -5.08377
rhand -18.5422 -33.678
rfingers 7.12502
rthumb 7.74702 -63.5161
lclavicle -5.67033e-014 9.54166e-015
lhumerus -53.3982 0.578767 88.167
lradius 21.1803
lwrist 8.58475
lhand -21.9163 -12.1573
lfingers 7.12502
lthumb 4.48958 17.7752
rfemur -5.15824 1.25264 28.2346
rtibia 25.9961
rfoot -13.9895 20.6079
rtoes 21.0872
lfemur -36.9538 2.03061 -14.6378
ltibia 25.1203
lfoot -16.3875 6.05859
ltoes -10.2554
22
root 5.86441 15.3069 -42.0651 5.96951 -4.3987 -2.91153
lowerback -1.86401 4.96929 5.96717
upperback -1.4057 6.53579 1.40768
thorax 0.0893341 3.23875 -1.7145
lowerneck -6.92544 -1.6166 -1.42464
upperneck 18.7464 -1.91533 -0.41637
head 6.86518 -1.0423 -0.0462281
rclavicle -4.80189e-014 -3.97569e-015
rhumerus -8.70694 -0.856395 -82.5669
rradius 35.7172
rwrist -5.77497
rhand -18.1573 -33.3032
rfingers 7.12502
rthumb 8.11853 -63.1273
lclavicle -4.80189e-014 -3.97569e-015
lhumerus -54.1932 0.374516 88.0467
lradius 21.3806
lwrist 8.7398
lhand -21.6403 -12.4733
lfingers 7.12502
lthumb 4.75606 17.4534
rfemur -4.64949 0.770518 27.2917
rtibia 25.8897
rfoot -14.4118 20.9944
rtoes 21.6518
lfemur -36.9941 2.92182 -16.0031
ltibia 22.2983
lfoot -14.1792 6.36208
ltoes -17.6034
23
root 5.87142 15.3002 -41.9248 6.01912 -4.40467 -2.90347
lowerback -1.73957 4.99318 5.78277
upperback -1.47147 6.58338 1.3974
thorax -0.0633785 3.25892 -1.63929
lowerneck -7.00993 -1.68038 -1.4297
upperneck 18.7873 -2.0038 -0.399885
head 6.89401 -1.08393 -0.0481607
rclavicle 1.94809e-014 3.18055e-015
rhumerus -8.30731 -0.520258 -82.4318
rradius 36.1252
rwrist -6.34899
rhand -18.0607 -34.4038
rfingers 7.12502
rthumb 8.21179 -64.2242
lclavicle 1.94809e-014 3.18055e-015
lhumerus -54.9296 0.504104 87.7971
lradius 21.4946
lwrist 8.67023
lhand -21.5625 -11.8296
lfingers 7.12502
lthumb 4.8312 18.0953
rfemur -4.08024 0.466251 27.1791
rtibia 25.7755
rfoot -14.7309 21.3216
rtoes 19.6615
lfemur -36.9676 4.09005 -16.6459
ltibia 19.517
lfoot -12.2832 6.73906
ltoes -24.6811
24
root 5.88123 15.2748 -41.7784 6.03594 -4.54964 -3.09538
lowerback -1.6887 5.1709 5.90677
upperback -1.43914 6.82067 1.28243
thorax -0.013712 3.37818 -1.81683
lowerneck -7.14178 -1.80309 -1.10562
upperneck 18.6187 -2.22545 -0.356858
head 6.86026 -1.16433 -0.10634
rclavicle -2.88983e-014 -3.06128e-014
rhumerus -7.90386 -0.511741 -82.4033
rradius 36.364
rwrist -6.63194
rhand -18.1808 -35.507
rfingers 7.12502
rthumb 8.09582 -65.332
lclavicle -2.88983e-014 -3.06128e-014
lhumerus -55.4493 0.190702 87.5172
lradius 21.4907
lwrist 8.77013
lhand -21.2566 -12.1441
lfingers 7.12502
lthumb 5.12662 17.7739
rfemur -3.39334 0.306255 27.2642
rtibia 25.4992
rfoot -15.2458 21.4943
rtoes 16.8632
lfemur -36.7423 4.51793 -16.7265
ltibia 16.9335
lfoot -10.7626 7.8529
ltoes -31.8088
25
root 5.89555 15.2565 -41.6326 6.02947 -4.58795 -3.07677
lowerback -1.68093 5.32028 5.94334
upperback -1.40753 7.01829 1.05796
thorax 0.0616722 3.47888 -2.05505
lowerneck -7.33429 -1.84372 -0.781812
upperneck 18.5761 -2.35597 -0.195209
head 6.87861 -1.19111 -0.120501
rclavicle -1.21569e-013 -1.70955e-014
rhumerus -7.48109 -0.638201 -82.4112
rradius 36.4217
rwrist -6.94749
rhand -18.5465 -36.8327
rfingers 7.12502
rthumb 7.74283 -66.6709
lclavicle -1.21569e-013 -1.70955e-014
lhumerus -56.0081 -0.350366 87.5003
lradius 21.567
lwrist 9.49597
lhand -19.9956 -15.5674
lfingers 7.12502
lthumb 6.34405 14.3176
rfemur -2.64429 0.109606 27.1145
rtibia 25.1146
rfoot -15.7269 21.6107
rtoes 15.1371
lfemur -35.8547 1.98573 -15.0526
ltibia 14.4563
lfoot -13.136 8.16349
ltoes -17.3595
26
root 5.91023 15.233 -41.482 6.12985 -4.64438 -3.22258
lowerback -1.57491 5.2052 6.04819
upperback -1.52381 6.87728 1.19386
thorax -0.133448 3.40074 -1.9973
lowerneck -7.35341 -1.7112 -1.38592
upperneck 18.7091 -2.11839 -0.0195761
head 6.93365 -1.10384 0.0547521
rclavicle 1.08835e-014 -7.55382e-015
rhumerus -7.1792 0.0531792 -82.3236
rradius 36.5538
rwrist -7.07075
rhand -19.4002 -37.6436
rfingers 7.12502
rthumb 6.91885 -67.5106
lclavicle 1.08835e-014 -7.55382e-015
lhumerus -56.9322 0.246376 87.4701
lradius 21.7991
lwrist 9.94543
lhand -19.6179 -17.1925
lfingers 7.12502
lthumb 6.70869 12.6813
rfemur -1.98193 -0.053027 27.1179
rtibia 24.7604
rfoot -15.5361 22.0123
rtoes 15.9829
lfemur -35.2472 0.523581 -13.8661
ltibia 11.8304
lfoot -14.1781 8.62816
ltoes -10.2639
27
root 5.93186 15.2181 -41.3193 6.26251 -4.772 -2.91577
lowerback -1.38333 5.12449 5.75337
upperback -1.79731 6.80013 1.16004
thorax -0.557746 3.34894 -1.91107
lowerneck -7.18767 -1.68987 -1.8945
upperneck 18.8159 -2.03404 0.0662884
head 6.94544 -1.09183 0.174955
rclavicle 6.60338e-014 3.18055e-015
rhumerus -7.33874 0.642035 -82.2625
rradius 36.9384
rwrist -7.26509
rhand -20.0319 -37.131
rfingers 7.12502
rthumb 6.30903 -67.0171
lclavicle 6.60338e-014 3.18055e-015
lhumerus -57.9993 0.91847 87.1194
lradius 21.9017
lwrist 9.79938
lhand -20.5471 -15.3012
lfingers 7.12502
lthumb 5.81162 14.5991
rfemur -1.2761 -0.581728 26.4678
rtibia 24.2542
rfoot -14.5355 23.0507
rtoes 18.6383
lfemur -34.9958 0.390521 -14.1036
ltibia 9.61738
lfoot -13.7803 8.58949
ltoes -7.30222
28
root 5.95314 15.1977 -41.1587 6.36702 -4.87641 -2.81613
lowerback -1.76668 5.16796 5.60813
upperback -1.65423 6.82455 1.1402
thorax -0.208335 3.37361 -1.80517
lowerneck -7.18405 -1.69228 -2.01907
upperneck 18.5016 -2.0326 0.133516
head 6.84568 -1.09349 0.218688
rclavicle 7.2867e-014 2.74323e-014
rhumerus -6.98626 0.820804 -82.1439
rradius 37.2022
rwrist -7.40482
rhand -19.1878 -35.3642
rfingers 7.12502
rthumb 7.12382 -65.2244
lclavicle 7.2867e-014 2.74323e-014
lhumerus -58.214 1.33937 86.754
lradius 21.6737
lwrist 9.61797
lhand -21.2642 -13.0659
lfingers 7.12502
lthumb 5.11922 16.8523
rfemur -0.597821 -0.98672 26.0544
rtibia 23.9297
rfoot -13.7976 23.9248
rtoes 20.1658
lfemur -34.2115 0.292257 -14.0756
ltibia 6.41493
lfoot -11.9873 9.7678
ltoes -12.0938
29
root 5.95537 15.1616 -41.0138 6.5881 -5.15006 -4.33186
lowerback -2.229 5.29761 6.93511
upperback -1.35541 6.92072 1.54117
thorax 0.467199 3.43682 -2.04355
lowerneck -7.35515 -1.47228 -2.03138
upperneck 17.9604 -1.75956 0.315247
head 6.70033 -0.946577 0.301248
rclavicle -2.60905e-016 3.33958e-014
rhumerus -6.2804 0.97546 -82.1649
rradius 37.3572
rwrist -7.3737
rhand -18.6656 -34.235
rfingers 7.12502
rthumb 7.6279 -64.0774
lclavicle -2.60905e-016 3.33958e-014
lhumerus -58.1402 1.69968 86.4183
lradius 21.6157
lwrist 9.68622
lhand -21.0606 -27.8766
lfingers 7.12502
lthumb 5.31585 2.0367
rfemur -0.0255306 -0.347631 27.6845
rtibia 23.6093
rfoot -13.7911 23.6616
rtoes 18.8879
lfemur -31.6511 0.664602 -12.2841
ltibia -6.99722e-014
lfoot -7.901 11.7688
ltoes -22.3825
